# xmcd CD database file
# Copyright (C) 1993-1998 Ti Kan
#
# Track frame offsets:
# 150
# 11767
# 23617
# 33797
# 50862
# 68455
# 82022
# 97225
# 108950
# 123002
#
# Disc length: 1796 seconds
# Revision: 0
# Processed by: cddbd v1.4b41PL1 Copyright (c) Steve Scherf et al.
# Submitted via: CDSpectrumPro v3.3.334
#
DISCID=7607020a
DTITLE=Various Artist - Working Man's Country
DYEAR=1900
DGENRE=
TTITLE0=Merle Haggard and the Strangers - Workin' Man Blues
TTITLE1=Tennessee Ernie Ford - Sixteen Tons
TTITLE2=Dave Dudley - Six Days on the Road
TTITLE3=Goerge Jones with James Taylor - Bartender's Blues
TTITLE4=John Conlee - Working Man
TTITLE5=Loretta Lynn - Coal Miner's Daughter
TTITLE6=Willie Nelson - Living in the Promised Land
TTITLE7=Rusty and Doug Kershaw - Louisiana Man
TTITLE8=Glen Campbell - Wichita Lineman
TTITLE9=Johnny Paycheck - Take This Job and Shove It
EXTD=
EXTT0=
EXTT1=
EXTT2=
EXTT3=
EXTT4=
EXTT5=
EXTT6=
EXTT7=
EXTT8=
EXTT9=
PLAYORDER=
